<!-- <?xml version="1.0" encoding="UTF-8" standalone="no"?>
Created with Inkscape (http://www.inkscape.org/) -->

<svg width="81.697861mm" height="81.172821mm" viewBox="0 0 81.697861 81.172821" version="1.1" id="svg5"
  xml:space="preserve" xmlns:inkscape="http://www.inkscape.org/namespaces/inkscape"
  xmlns:sodipodi="http://sodipodi.sourceforge.net/DTD/sodipodi-0.dtd" xmlns="http://www.w3.org/2000/svg"
  xmlns:svg="http://www.w3.org/2000/svg">
  <sodipodi:namedview id="namedview7" pagecolor="#505050" bordercolor="#ffffff" borderopacity="1"
    inkscape:showpageshadow="0" inkscape:pageopacity="0" inkscape:pagecheckerboard="1" inkscape:deskcolor="#505050"
    inkscape:document-units="mm" showgrid="false" />
  <defs id="defs2" />
  <g inkscape:label="Capa 1" inkscape:groupmode="layer" id="layer1" transform="translate(-41.682729,-102.74722)">
    <path id="path6067" style="fill:#1a1a1a;fill-opacity:1;stroke-width:0;paint-order:stroke fill markers"
      d="m 82.458533,102.74722 a 40.898144,41.39996 0 0 0 -6.371188,0.54467 l -5.16e-4,0.0155 a 40.848923,40.56649 0 0 1 6.444567,-0.52038 40.848923,40.56649 0 0 1 6.815605,0.58963 v -0.0279 a 40.898144,41.39996 0 0 0 -6.888468,-0.60151 z m 6.888468,0.62942 -0.05891,12.43386 -6.989754,3.12023 -6.523633,-3.7636 -0.06046,-0.45682 0.372587,-11.40292 a 40.848923,40.56649 0 0 0 -34.404102,40.04613 40.848923,40.56649 0 0 0 40.848669,40.56652 40.848923,40.56649 0 0 0 40.849182,-40.56652 40.848923,40.56649 0 0 0 -34.033577,-39.97688 z" />
  </g>
</svg>