<?xml version="1.0" standalone="no"?>
<!DOCTYPE svg PUBLIC "-//W3C//DTD SVG 20010904//EN"
 "http://www.w3.org/TR/2001/REC-SVG-20010904/DTD/svg10.dtd">
<svg version="1.0" xmlns="http://www.w3.org/2000/svg"
 width="351.000000pt" height="261.000000pt" viewBox="0 0 351.000000 261.000000"
 preserveAspectRatio="xMidYMid meet">

<g transform="translate(0.000000,261.000000) scale(0.100000,-0.100000)"
fill="#000000" stroke="none">
<path d="M50 1902 l0 -709 588 -218 587 -218 1125 205 1125 205 3 721 2 722
-40 0 -40 0 0 -690 c0 -379 -2 -690 -5 -690 -3 0 -490 -88 -1082 -196 l-1077
-196 -276 102 c-151 57 -402 150 -557 207 l-283 105 0 679 0 679 -35 0 -35 0
0 -708z"/>
<path d="M2191 2119 c-49 -46 -51 -64 -51 -444 0 -385 3 -407 54 -440 33 -22
85 -13 114 18 40 42 52 90 52 202 l0 105 -30 0 -30 0 0 -103 c0 -77 -4 -108
-16 -125 -19 -27 -50 -29 -64 -3 -6 13 -10 142 -10 353 0 286 2 337 16 356 18
26 37 28 58 6 13 -12 16 -38 16 -120 l0 -104 30 0 30 0 0 110 c0 121 -12 166
-51 194 -33 23 -90 21 -118 -5z"/>
<path d="M340 1898 c0 -260 5 -281 71 -347 82 -82 233 -118 284 -67 39 40 45
85 45 374 l0 272 -85 0 -85 0 0 -245 c0 -219 -2 -246 -16 -252 -38 -14 -44 20
-44 264 l0 233 -85 0 -85 0 0 -232z"/>
<path d="M780 1767 l0 -363 68 -22 c38 -12 71 -22 75 -22 4 0 7 75 7 167 0 92
4 163 8 157 5 -5 23 -61 41 -124 18 -63 41 -145 51 -181 l20 -65 57 -18 c32
-10 64 -21 71 -23 9 -4 12 85 12 426 l0 431 -75 0 -75 0 -2 -171 -3 -170 -51
168 -50 168 -77 3 -77 3 0 -364z"/>
<path d="M1270 1595 l0 -535 30 0 30 0 0 362 c0 199 2 359 5 356 3 -3 19 -160
36 -349 17 -189 33 -346 34 -347 2 -2 17 -1 34 3 26 6 31 11 32 38 0 18 13
169 29 337 l28 305 1 -334 c1 -299 3 -333 17 -327 9 3 24 6 35 6 18 0 19 14
19 510 l0 510 -50 0 c-41 0 -50 -3 -50 -17 -1 -56 -57 -734 -61 -738 -3 -2
-18 167 -34 375 l-29 380 -53 0 -53 0 0 -535z"/>
<path d="M1730 2118 c-1 -7 -20 -233 -44 -503 -23 -269 -42 -491 -42 -491 1
-1 15 1 33 3 l31 5 9 101 8 101 34 8 c18 5 35 8 37 6 2 -2 6 -47 10 -99 l7
-95 33 4 c34 4 34 4 33 56 0 28 -17 245 -37 481 l-37 430 -37 3 c-26 2 -38 -1
-38 -10z m52 -541 l3 -142 -29 -3 c-27 -3 -28 -3 -22 35 3 21 11 115 18 208
11 156 13 165 20 107 4 -34 8 -127 10 -205z"/>
<path d="M1890 2090 c0 -39 1 -40 35 -40 l35 0 0 -436 0 -436 23 6 c12 3 28 6
35 6 9 0 12 93 12 430 l0 430 35 0 c34 0 35 1 35 40 l0 40 -105 0 -105 0 0
-40z"/>
<path d="M2420 1700 c0 -417 1 -430 19 -430 51 0 51 -1 51 200 0 205 -2 200
61 200 l29 0 0 -186 0 -185 33 3 32 3 3 413 2 412 -35 0 -35 0 -2 -192 -3
-193 -42 -3 -43 -3 0 195 0 196 -35 0 -35 0 0 -430z"/>
<path d="M2710 1724 l0 -406 30 6 c17 3 59 11 95 18 65 11 65 12 65 45 l0 34
-47 -7 c-27 -3 -52 -7 -58 -8 -6 0 -11 57 -13 152 l-3 152 23 0 c52 0 68 11
68 44 0 31 0 31 -45 28 l-45 -4 0 140 0 140 31 6 c17 3 44 6 60 6 26 0 29 4
29 30 l0 30 -95 0 -95 0 0 -406z"/>
<path d="M2960 1750 c0 -432 -11 -390 94 -368 66 13 110 49 120 99 3 17 6 150
6 296 0 348 -2 353 -144 353 l-76 0 0 -380z m144 294 c3 -9 6 -137 6 -285 0
-256 -1 -270 -20 -289 -11 -11 -29 -20 -40 -20 -20 0 -20 7 -20 305 l0 305 34
0 c22 0 36 -6 40 -16z"/>
<path d="M3221 2116 c-16 -19 -11 -46 12 -60 25 -16 52 4 52 40 0 24 -5 30
-26 32 -14 2 -31 -4 -38 -12z m57 -25 c2 -14 0 -21 -6 -17 -6 3 -12 0 -15 -6
-3 -10 -9 -8 -23 4 -14 14 -15 21 -6 30 9 9 12 8 12 -5 0 -19 15 -23 26 -6 3
6 0 16 -7 21 -12 8 -11 9 1 5 8 -2 17 -14 18 -26z"/>
<path d="M342 1443 l3 -68 415 -152 c228 -84 419 -153 423 -153 4 0 7 30 5 67
l-3 66 -405 149 c-223 81 -413 150 -423 154 -16 5 -18 -1 -15 -63z"/>
</g>
</svg>
