<?xml version="1.0" encoding="UTF-8" standalone="no"?>
<!-- Created with Inkscape (http://www.inkscape.org/) -->

<svg
   width="161.53117mm"
   height="145.70296mm"
   viewBox="0 0 161.53117 145.70296"
   version="1.1"
   id="svg1"
   inkscape:version="1.3 (0e150ed6c4, 2023-07-21)"
   sodipodi:docname="app-iconos.svg"
   inkscape:export-filename="random-card.svg"
   inkscape:export-xdpi="106.76198"
   inkscape:export-ydpi="106.76198"
   xmlns:inkscape="http://www.inkscape.org/namespaces/inkscape"
   xmlns:sodipodi="http://sodipodi.sourceforge.net/DTD/sodipodi-0.dtd"
   xmlns="http://www.w3.org/2000/svg"
   xmlns:svg="http://www.w3.org/2000/svg">
  <sodipodi:namedview
     id="namedview1"
     pagecolor="#505050"
     bordercolor="#ffffff"
     borderopacity="1"
     inkscape:showpageshadow="0"
     inkscape:pageopacity="0"
     inkscape:pagecheckerboard="1"
     inkscape:deskcolor="#505050"
     inkscape:document-units="mm"
     showgrid="true"
     inkscape:zoom="0.45344416"
     inkscape:cx="370.49766"
     inkscape:cy="550.23313"
     inkscape:window-width="1366"
     inkscape:window-height="705"
     inkscape:window-x="-8"
     inkscape:window-y="-8"
     inkscape:window-maximized="1"
     inkscape:current-layer="layer1">
    <inkscape:grid
       id="grid6"
       units="px"
       originx="-100.66357"
       originy="-182.03698"
       spacingx="0.26458333"
       spacingy="0.26458334"
       empcolor="#3f3fff"
       empopacity="0.25098039"
       color="#3f3fff"
       opacity="0.1254902"
       empspacing="5"
       dotted="false"
       gridanglex="30"
       gridanglez="30"
       visible="true" />
  </sodipodi:namedview>
  <defs
     id="defs1">
    <linearGradient
       id="swatch19"
       inkscape:swatch="solid">
      <stop
         style="stop-color:#cddc39;stop-opacity:1;"
         offset="0"
         id="stop19" />
    </linearGradient>
  </defs>
  <g
     inkscape:label="Capa 1"
     inkscape:groupmode="layer"
     id="layer1"
     style="display:inline"
     transform="translate(-26.633904,-48.163951)">
    <path
       id="rect16"
       style="fill:#cddc39;fill-opacity:1;stroke-width:0.271697"
       d="m 76.709658,64.466593 -4.828963,-9.6e-5 6.024097,2.316157 -4.5e-5,-1.12105 c 0,-0.662101 -0.532988,-1.195011 -1.195089,-1.195011 z m -6.537345,2.02e-4 -53.556494,-1.9e-5 c -0.662101,0 -1.195011,0.532988 -1.195011,1.195089 l -1.14e-4,95.311595 c 0,0.66211 0.533497,1.1951 1.195598,1.1951 l 37.129193,3.3e-4 -17.461074,-6.71356 c -0.617995,-0.23761 -0.924055,-0.92659 -0.686443,-1.54459 L 69.802989,64.948155 c 0.07753,-0.201638 0.213837,-0.354186 0.369324,-0.48136 z"
       transform="rotate(-10.059209)"
       sodipodi:nodetypes="cccccccccccsccc" />
    <path
       id="rect7"
       style="display:inline;fill:#cddc39;fill-opacity:1;stroke-width:0.271697"
       d="m 92.594104,31.131951 c -0.662101,0 -1.195349,0.532932 -1.195349,1.195033 l 8.5e-5,95.311726 c 0,0.6621 0.532931,1.19535 1.195033,1.19535 l 34.013467,-2.4e-4 -19.2248,-6.79109 c -0.6243,-0.22053 -0.94935,-0.90042 -0.72882,-1.52472 l 31.57599,-89.386059 z m 50.762576,-1.63e-4 10.52592,3.718505 2.9e-4,-2.523553 c 0,-0.662102 -0.53334,-1.194744 -1.19545,-1.194744 z"
       transform="rotate(10.97198)" />
    <rect
       style="display:inline;fill:#cddc39;fill-opacity:1;stroke-width:0.271697"
       id="rect6"
       width="62.484001"
       height="97.702003"
       x="143.7845"
       y="-21.218565"
       ry="1.1951296"
       transform="rotate(30.42795)" />
    <path
       style="fill:#cddc39;fill-opacity:1;stroke:none;stroke-width:0.264583px;stroke-linecap:butt;stroke-linejoin:miter;stroke-opacity:1"
       d="m 87.524557,166.29666 -3.79273,4.66798 -2.04224,3.64685 c 0,0 -1.458743,10.06532 7.293713,11.81582 8.752457,1.75049 8.898329,2.77161 8.898329,2.77161 l -3.063359,4.66797 19.2554,-4.66797 -13.12868,-15.02505 -0.5835,4.95972 -5.105596,-0.29175 c 0,0 -15.462673,2.91749 -7.293713,-11.52406 8.168957,-14.44155 -0.437624,-1.02112 -0.437624,-1.02112 z"
       id="path19" />
  </g>
</svg>
